<svg width="24" height="24" xmlns="http://www.w3.org/2000/svg" xmlns:xlink="http://www.w3.org/1999/xlink">
  <defs>
    <path d="M12.248 4c1 0 1.94.19 2.819.57.88.38 1.65.898 2.312 1.554a7.274 7.274 0 0 1 1.562 2.304c.38.88.57 1.82.57 2.82a7.349 7.349 0 0 1-.758 3.241 7.08 7.08 0 0 1-.906 1.39c-.359.432-.768.82-1.226 1.164a.49.49 0 0 1-.375.093.49.49 0 0 1-.422-.562.503.503 0 0 1 .188-.328c.396-.302.75-.638 1.062-1.007a6.01 6.01 0 0 0 1.273-2.539c.11-.468.164-.953.164-1.452 0-.865-.164-1.674-.492-2.43a6.362 6.362 0 0 0-1.343-1.983 6.337 6.337 0 0 0-1.992-1.343A6.084 6.084 0 0 0 12.248 5c-.854 0-1.661.164-2.421.492a6.337 6.337 0 0 0-1.992 1.343 6.362 6.362 0 0 0-1.343 1.984A6.029 6.029 0 0 0 6 11.248c0 .822.15 1.598.453 2.327a6.355 6.355 0 0 0 3.093 3.304 6 6 0 0 0 2.296.601l-.86-1.359a.473.473 0 0 1-.07-.281.269.269 0 0 1 .149-.234l.109-.079a.353.353 0 0 1 .289-.03.399.399 0 0 1 .226.171l1.484 2.312.094.156c.031.042.05.089.055.14a.41.41 0 0 1-.008.141.286.286 0 0 1-.063.117.683.683 0 0 1-.109.102l-.156.078h-.016v.016l-2.39 1.218a.378.378 0 0 1-.289.039.354.354 0 0 1-.226-.18l-.047-.125a.282.282 0 0 1-.016-.273.396.396 0 0 1 .188-.21l1.437-.735a7.157 7.157 0 0 1-2.6-.734 7.189 7.189 0 0 1-2.102-1.586 7.515 7.515 0 0 1-1.406-2.233A6.953 6.953 0 0 1 5 11.248c0-1 .19-1.94.57-2.82a7.34 7.34 0 0 1 1.554-2.304A7.34 7.34 0 0 1 9.428 4.57c.88-.38 1.82-.57 2.82-.57z" id="a"/>
  </defs>
  <g fill="none" fill-rule="evenodd">
    <path d="M0 0h24v24H0z"/>
    <mask id="b" fill="#fff">
      <use xlink:href="#a"/>
    </mask>
    <g mask="url(#b)" fill="#5E5C76">
      <path d="M0 0h24v24H0z"/>
    </g>
  </g>
</svg>
