<svg width="24" height="24" xmlns="http://www.w3.org/2000/svg" xmlns:xlink="http://www.w3.org/1999/xlink">
  <defs>
    <path d="M18.89 7.984c.303 0 .563.11.782.329.219.218.328.479.328.78v6.782c0 .313-.11.578-.328.797-.219.219-.48.328-.781.328H17v3H7v-3H5.11c-.303 0-.563-.11-.782-.328A1.085 1.085 0 0 1 4 15.875V9.094c0-.302.11-.563.328-.781.219-.22.48-.329.781-.329H7V4h10v3.984h1.89zM8 4.984v3h8v-3H8zM16 19v-5.516H8V19h8zm3-3.125V9.094a.106.106 0 0 0-.11-.11H5.11a.106.106 0 0 0-.11.11v6.781a.106.106 0 0 0 .11.11H7v-3.5h10V16h1.89a.096.096 0 0 0 .079-.04.134.134 0 0 0 .031-.085zm-2-5.89a.48.48 0 0 1 .352.148.48.48 0 0 1 .148.351.494.494 0 0 1-.5.5h-.5a.494.494 0 0 1-.5-.5.48.48 0 0 1 .148-.351.48.48 0 0 1 .352-.149h.5z" id="a"/>
  </defs>
  <g fill="none" fill-rule="evenodd">
    <path d="M0 0h24v24H0z"/>
    <mask id="b" fill="#fff">
      <use xlink:href="#a"/>
    </mask>
    <g mask="url(#b)" fill="#5E5C76">
      <path d="M0 0h24v24H0z"/>
    </g>
  </g>
</svg>
