<svg width="24" height="24" xmlns="http://www.w3.org/2000/svg" xmlns:xlink="http://www.w3.org/1999/xlink">
  <defs>
    <path d="M19 7.309c.27 0 .505.093.703.278a.871.871 0 0 1 .297.657v9.82a.871.871 0 0 1-.297.658A.995.995 0 0 1 19 19H5a.995.995 0 0 1-.703-.278.871.871 0 0 1-.297-.657v-9.82c0-.254.099-.473.297-.658A.995.995 0 0 1 5 7.309h4v-.906c0-.38.146-.709.438-.987A1.484 1.484 0 0 1 10.5 5h3c.417 0 .77.139 1.063.416.291.278.437.607.437.987v.906h4zm-9-.906v.906h4v-.906a.447.447 0 0 0-.14-.329.49.49 0 0 0-.36-.139h-3a.497.497 0 0 0-.352.14.436.436 0 0 0-.148.328zM5 8.244v3.288h5.5v-.482c0-.253.096-.472.29-.658a.987.987 0 0 1 .71-.277h1c.27 0 .505.092.703.277a.871.871 0 0 1 .297.658v.482H19V8.244H5zm7.5 5.159V11.05h-1v2.353h1zM5 18.065h14v-5.597h-5.5v.935a.864.864 0 0 1-.297.665 1.01 1.01 0 0 1-.703.27h-1c-.281 0-.518-.09-.71-.27a.875.875 0 0 1-.29-.665v-.935H5v5.597z" id="a"/>
  </defs>
  <g fill="none" fill-rule="evenodd">
    <path d="M0 0h24v24H0z"/>
    <mask id="b" fill="#fff">
      <use xlink:href="#a"/>
    </mask>
    <g mask="url(#b)" fill="#5E5C76">
      <path d="M0 0h24v24H0z"/>
    </g>
  </g>
</svg>
