<svg width="24" height="24" xmlns="http://www.w3.org/2000/svg" xmlns:xlink="http://www.w3.org/1999/xlink"><defs><path d="M12.402 17.457l3.17-2.824c.133-.117.3-.18.482-.18.181 0 .349.063.481.18a.618.618 0 0 1 0 .935l-3.652 3.252a.714.714 0 0 1-.48.18.714.714 0 0 1-.482-.18l-3.706-3.293A.638.638 0 0 1 8 15.052c0-.084.018-.165.052-.243a.66.66 0 0 1 .18-.238.733.733 0 0 1 .464-.16c.172 0 .333.054.481.174l3.225 2.872zm-3.225-8.09a.714.714 0 0 1-.48.18.714.714 0 0 1-.482-.18.618.618 0 0 1 0-.935l3.652-3.252c.132-.118.3-.18.48-.18.182 0 .35.062.482.18l3.706 3.293a.638.638 0 0 1 .215.475.612.612 0 0 1-.052.243.66.66 0 0 1-.18.238.733.733 0 0 1-.464.16.745.745 0 0 1-.481-.174l-3.225-2.872-3.17 2.824z" id="a"/></defs><g fill="none" fill-rule="evenodd"><path d="M0 0h24v24H0z"/><mask id="b" fill="#fff"><use xlink:href="#a"/></mask><g mask="url(#b)" fill="#FFF"><path d="M0 0h24v24H0z"/></g></g></svg>