<svg width="24" height="24" xmlns="http://www.w3.org/2000/svg" xmlns:xlink="http://www.w3.org/1999/xlink">
  <defs>
    <path d="M20.776 10.45c0 .182-.13.353-.262.484l-3.66 3.57.867 5.04c.01.07.01.131.01.202 0 .262-.12.504-.413.504a.819.819 0 0 1-.403-.121l-4.527-2.38-4.527 2.38a.851.851 0 0 1-.403.121c-.292 0-.423-.242-.423-.504 0-.07.01-.131.02-.202l.867-5.04-3.67-3.57c-.12-.13-.252-.302-.252-.484 0-.302.313-.423.565-.463l5.06-.736 2.27-4.588c.09-.191.261-.413.493-.413.232 0 .403.222.494.413l2.269 4.588 5.06.736c.243.04.565.16.565.463z" id="a"/>
  </defs>
  <g fill="none" fill-rule="evenodd">
    <path d="M0 0h24v24H0z"/>
    <mask id="b" fill="#fff">
      <use xlink:href="#a"/>
    </mask>
    <g mask="url(#b)" fill="#FFA200">
      <path d="M0 0h24v24H0z"/>
    </g>
  </g>
</svg>
