<svg width="16" height="16" xmlns="http://www.w3.org/2000/svg" xmlns:xlink="http://www.w3.org/1999/xlink">
  <defs>
    <path d="M8 0c1.104 0 2.143.208 3.117.625a8.028 8.028 0 0 1 2.547 1.71 8.028 8.028 0 0 1 1.711 2.548C15.792 5.857 16 6.896 16 8a7.841 7.841 0 0 1-.625 3.117 8.028 8.028 0 0 1-1.71 2.547 8.028 8.028 0 0 1-2.548 1.711A7.841 7.841 0 0 1 8 16a7.841 7.841 0 0 1-3.117-.625 8.028 8.028 0 0 1-2.547-1.71 8.028 8.028 0 0 1-1.711-2.548A7.841 7.841 0 0 1 0 8c0-1.104.208-2.143.625-3.117a8.028 8.028 0 0 1 1.71-2.547A8.028 8.028 0 0 1 4.884.625 7.841 7.841 0 0 1 8 0zm0 14.515A6.27 6.27 0 0 1 5.468 14a6.56 6.56 0 0 1-2.06-1.4 6.712 6.712 0 0 1-1.393-2.068A6.27 6.27 0 0 1 1.5 8.001c0-.9.172-1.744.515-2.532a6.622 6.622 0 0 1 1.393-2.06 6.622 6.622 0 0 1 2.06-1.393A6.27 6.27 0 0 1 8 1.5c.9 0 1.743.171 2.532.515a6.622 6.622 0 0 1 2.06 1.392 6.622 6.622 0 0 1 1.393 2.06 6.27 6.27 0 0 1 .515 2.533c0 .9-.172 1.743-.515 2.531a6.712 6.712 0 0 1-1.393 2.068 6.56 6.56 0 0 1-2.06 1.4A6.27 6.27 0 0 1 8 14.515zM7.2 12.8h1.6v-1.548H7.2V12.8zm.203-2.79h1.202L8.8 5.057V3.2H7.2v1.858l.203 4.951z" id="a"/>
  </defs>
  <g fill="none" fill-rule="evenodd">
    <path d="M-4-4h24v24H-4z"/>
    <path d="M7.2 12.8h1.6v-1.548H7.2V12.8zm.203-2.79h1.202L8.8 5.057V3.2H7.2v1.858l.203 4.951z"/>
    <g>
      <mask id="b" fill="#fff">
        <use xlink:href="#a"/>
      </mask>
      <g mask="url(#b)">
        <path fill="#FFA200" fill-rule="nonzero" d="M-4-4h24v24H-4z"/>
      </g>
    </g>
  </g>
</svg>
