<svg width="24" height="24" xmlns="http://www.w3.org/2000/svg" xmlns:xlink="http://www.w3.org/1999/xlink">
  <defs>
    <path d="M12.008 5.001c-.428 0-.85.08-1.267.242a4.688 4.688 0 0 0-1.126.618c-.334.25-.602.522-.806.813-.203.292-.305.569-.305.83v2.502c0 .49.123 1.116.368 1.877.245.76.628 1.35 1.15 1.767a.993.993 0 0 1 .375.907c-.031.167-.097.32-.196.462a.954.954 0 0 1-.383.32l-4.395 2.08c-.062.021-.148.07-.258.149-.11.078-.164.222-.164.43v1.017l13.998-.016v-.97c0-.27-.065-.44-.195-.508s-.201-.102-.212-.102l-4.363-2.064a1.013 1.013 0 0 1-.509-1.306.964.964 0 0 1 .305-.399c.543-.417.926-1.009 1.15-1.775.224-.766.336-1.39.336-1.87V7.504c0-.27-.104-.552-.313-.844a3.684 3.684 0 0 0-.805-.806 4.65 4.65 0 0 0-1.126-.61 3.503 3.503 0 0 0-1.26-.242zm0-1.001c.552 0 1.097.104 1.634.313.537.208 1.017.48 1.44.813.421.334.766.71 1.031 1.126.266.417.4.834.4 1.251v2.503c0 .302-.032.652-.095 1.048-.062.396-.166.8-.312 1.212a5.959 5.959 0 0 1-.58 1.189c-.239.38-.53.706-.875.977l4.364 2.08.492.274c.329.182.493.42.493.712v1.517a.949.949 0 0 1-.29.696.949.949 0 0 1-.695.289H5a.967.967 0 0 1-.712-.29.949.949 0 0 1-.289-.695v-1.517c0-.272.167-.504.5-.696l.501-.29 4.395-2.08a3.795 3.795 0 0 1-.892-1.017c-.24-.396-.435-.8-.586-1.212A6.46 6.46 0 0 1 7.598 11a6.456 6.456 0 0 1-.095-.993V7.503c0-.417.13-.834.391-1.25.261-.418.603-.793 1.025-1.127a5.5 5.5 0 0 1 1.447-.813A4.543 4.543 0 0 1 12.008 4z" id="a"/>
  </defs>
  <g fill="none" fill-rule="evenodd">
    <path d="M0 0h24v24H0z"/>
    <mask id="b" fill="#fff">
      <use xlink:href="#a"/>
    </mask>
    <g mask="url(#b)" fill="#FFF">
      <path d="M0 0h24v24H0z"/>
    </g>
  </g>
</svg>
