<svg width="24" height="24" xmlns="http://www.w3.org/2000/svg" xmlns:xlink="http://www.w3.org/1999/xlink">
  <defs>
    <path d="M12 4c1.104 0 2.143.208 3.117.625a8.028 8.028 0 0 1 2.547 1.71 8.028 8.028 0 0 1 1.711 2.548c.417.974.625 2.013.625 3.117a7.841 7.841 0 0 1-.625 3.117 8.028 8.028 0 0 1-1.71 2.547 8.028 8.028 0 0 1-2.548 1.711A7.841 7.841 0 0 1 12 20a7.841 7.841 0 0 1-3.117-.625 8.028 8.028 0 0 1-2.547-1.71 8.028 8.028 0 0 1-1.711-2.548A7.841 7.841 0 0 1 4 12c0-1.104.208-2.143.625-3.117a8.028 8.028 0 0 1 1.71-2.547 8.028 8.028 0 0 1 2.548-1.711A7.841 7.841 0 0 1 12 4zm0 15.016c.969 0 1.878-.185 2.727-.555a7.064 7.064 0 0 0 2.218-1.508 7.228 7.228 0 0 0 1.5-2.226c.37-.85.555-1.758.555-2.727 0-.969-.185-1.878-.555-2.727a7.131 7.131 0 0 0-1.5-2.218 7.131 7.131 0 0 0-2.218-1.5A6.753 6.753 0 0 0 12 5c-.969 0-1.878.185-2.727.555-.849.37-1.588.87-2.218 1.5-.63.63-1.13 1.37-1.5 2.218A6.753 6.753 0 0 0 5 12c0 .969.185 1.878.555 2.727.37.849.87 1.59 1.5 2.226a7.064 7.064 0 0 0 2.218 1.508c.85.37 1.758.555 2.727.555zm3.188-9.938a.494.494 0 0 1 .718 0c.094.094.14.211.14.352 0 .14-.046.257-.14.351l-4.984 5.016-.063.062a.453.453 0 0 1-.351.157.453.453 0 0 1-.352-.157l-2.484-2.468a.477.477 0 0 1-.14-.352c0-.14.046-.258.14-.351a.494.494 0 0 1 .719 0l2.109 2.109 4.688-4.719z" id="a"/>
  </defs>
  <g fill="none" fill-rule="evenodd">
    <path d="M0 0h24v24H0z"/>
    <mask id="b" fill="#fff">
      <use xlink:href="#a"/>
    </mask>
    <use fill="#000" xlink:href="#a"/>
    <g mask="url(#b)" fill="#5E5C76">
      <path d="M0 0h24v24H0z"/>
    </g>
  </g>
</svg>
