<svg width="24" height="24" xmlns="http://www.w3.org/2000/svg" xmlns:xlink="http://www.w3.org/1999/xlink">
  <defs>
    <path d="M20 12a7.792 7.792 0 0 1-.585 3.008 7.977 7.977 0 0 1-1.606 2.484 8.235 8.235 0 0 1-2.394 1.735 7.729 7.729 0 0 1-3.064.765 1.2 1.2 0 0 1-.133.008H12a7.73 7.73 0 0 1-3.111-.633 8.12 8.12 0 0 1-2.542-1.719 8.162 8.162 0 0 1-1.715-2.539A7.715 7.715 0 0 1 4 12c0-1.104.21-2.14.632-3.11a8.162 8.162 0 0 1 1.715-2.538 8.12 8.12 0 0 1 2.542-1.72A7.73 7.73 0 0 1 12 4h.218a1.2 1.2 0 0 1 .133.008 7.729 7.729 0 0 1 3.064.766 8.235 8.235 0 0 1 2.394 1.734 7.977 7.977 0 0 1 1.606 2.484c.39.943.585 1.945.585 3.008zm-1.481 2.578A6.977 6.977 0 0 0 19.002 12c0-.48-.047-.945-.14-1.398a7.278 7.278 0 0 0-.39-1.29l.187.516c-.031.01-.226.063-.585.156-.359.094-.923.188-1.692.282.031.28.057.565.078.851a13.01 13.01 0 0 1-.016 1.992c-.03.365-.067.72-.109 1.063a15.71 15.71 0 0 1 1.435.226c.353.079.603.138.749.18zM8.46 12c0 .365.016.719.047 1.063.031.343.073.682.125 1.015.405-.031.844-.057 1.317-.078.473-.02.985-.036 1.536-.047v-3.469a36.95 36.95 0 0 1-2.916-.109c-.031.26-.057.526-.078.797-.02.27-.031.547-.031.828zm4.023-6.938V9.5c.541-.01 1.037-.026 1.49-.047.452-.02.87-.047 1.255-.078a11.621 11.621 0 0 0-.46-1.57 6.914 6.914 0 0 0-.632-1.29 4.442 4.442 0 0 0-.78-.937 2.385 2.385 0 0 0-.873-.516zm-.998.016a2.34 2.34 0 0 0-.873.524c-.28.255-.538.567-.772.937-.234.37-.444.797-.631 1.281a11.098 11.098 0 0 0-.468 1.555c.384.031.805.057 1.263.078.457.021.951.037 1.481.047V5.078zm0 9.875c-.509.01-.982.024-1.419.04-.436.015-.842.038-1.216.07a9 9 0 0 0 .468 1.398c.187.432.395.815.624 1.148.228.334.473.612.732.836.26.224.53.383.811.477v-3.969zm.998 3.985a2.28 2.28 0 0 0 .82-.461 4.18 4.18 0 0 0 .74-.836c.229-.334.434-.72.616-1.157.182-.437.335-.911.46-1.422a24.22 24.22 0 0 0-1.209-.07 96.142 96.142 0 0 0-1.427-.039v3.985zm0-4.985c.551.01 1.063.026 1.536.047.474.02.908.047 1.303.078.052-.333.093-.672.124-1.015a11.758 11.758 0 0 0 .016-1.891c-.02-.271-.047-.542-.078-.813-.395.042-.834.073-1.318.094a36.95 36.95 0 0 1-1.583.031v3.47zm5.802-5.047a7.075 7.075 0 0 0-3.493-3.328c.322.458.608 1.003.857 1.633.25.63.447 1.32.593 2.07a13.616 13.616 0 0 0 1.434-.226c.333-.078.536-.128.609-.149zM9.614 5.422a6.696 6.696 0 0 0-1.232.586 7.066 7.066 0 0 0-1.076.804 7.503 7.503 0 0 0-.912.993c-.276.36-.512.742-.71 1.148.135.042.374.094.718.156.343.063.8.125 1.372.188a9.662 9.662 0 0 1 .748-2.188 7.861 7.861 0 0 1 1.092-1.687zM5.326 9.89a7.443 7.443 0 0 0-.242 1.03 7.165 7.165 0 0 0 .031 2.383c.078.423.195.826.35 1.212.157-.032.417-.081.78-.149a19.34 19.34 0 0 1 1.42-.195c-.063-.344-.11-.698-.14-1.063A13.01 13.01 0 0 1 7.477 12c0-.292.007-.583.023-.875.016-.292.044-.573.086-.844a16.706 16.706 0 0 1-1.568-.226c-.369-.078-.6-.133-.693-.164zm.577 5.546c.207.365.444.706.71 1.024a7.237 7.237 0 0 0 1.87 1.594 6.02 6.02 0 0 0 1.131.523 6.918 6.918 0 0 1-1.006-1.5 9.787 9.787 0 0 1-.725-1.937 18.15 18.15 0 0 0-1.216.164l-.764.133zm8.888 2.985a7.096 7.096 0 0 0 1.872-1.203 6.853 6.853 0 0 0 1.403-1.735 9.832 9.832 0 0 0-.701-.148 22.418 22.418 0 0 0-1.217-.18c-.145.657-.335 1.26-.57 1.813a7.94 7.94 0 0 1-.787 1.453z" id="a"/>
  </defs>
  <g fill="none" fill-rule="evenodd">
    <path d="M0 0h24v24H0z"/>
    <mask id="b" fill="#fff">
      <use xlink:href="#a"/>
    </mask>
    <g mask="url(#b)" fill="#FFF">
      <path d="M0 0h24v24H0z"/>
    </g>
  </g>
</svg>
