<svg width="24" height="24" xmlns="http://www.w3.org/2000/svg" xmlns:xlink="http://www.w3.org/1999/xlink">
  <defs>
    <path d="M10 6.696v1.125h4.03V6.696h3.643c.104 0 .203.033.296.098a.4.4 0 0 1 .172.262l1.843 6.108c.01.04.016.078.016.113v5.455c0 .26-.096.485-.289.675a.973.973 0 0 1-.71.285H5.004a.973.973 0 0 1-.71-.285.917.917 0 0 1-.29-.675v-5.283c0-.05.005-.097.016-.142.01-.045.02-.088.031-.128a.792.792 0 0 1-.047-.157.27.27 0 0 1 .016-.158l1.671-5.808a.518.518 0 0 1 .484-.36H10zm0 1.005v.12h4.03v-.12h3.091l1.453 4.832h-4.655c-.01.58-.208 1.05-.594 1.41-.385.36-.88.54-1.483.54-.604 0-1.096-.18-1.477-.54-.38-.36-.575-.83-.585-1.41H5L6.406 7.7H10zm8.995 11.308H5v-5.282h4.108c.219.61.58 1.087 1.086 1.433.505.345 1.106.517 1.804.517.697 0 1.301-.172 1.812-.517.51-.346.874-.823 1.093-1.433h4.092v5.282zM11.528 5.453c0-.132.044-.24.133-.326A.47.47 0 0 1 12 5c.128 0 .238.042.332.127a.42.42 0 0 1 .14.326l-.008 5.82L14.19 9.6a.503.503 0 0 1 .34-.127c.127 0 .24.042.338.127.04.047.072.1.096.156a.424.424 0 0 1 .037.17.424.424 0 0 1-.037.17.64.64 0 0 1-.096.156l-2.86 2.676-2.86-2.676A.44.44 0 0 1 9 9.927a.44.44 0 0 1 .147-.326.46.46 0 0 1 .332-.127.46.46 0 0 1 .332.127l1.71 1.643.007-5.79z" id="a"/>
  </defs>
  <g fill="none" fill-rule="evenodd">
    <path d="M0 0h24v24H0z"/>
    <mask id="b" fill="#fff">
      <use xlink:href="#a"/>
    </mask>
    <g mask="url(#b)" fill="#5E5C76">
      <path d="M0 0h24v24H0z"/>
    </g>
  </g>
</svg>
