<svg width="24" height="24" xmlns="http://www.w3.org/2000/svg" xmlns:xlink="http://www.w3.org/1999/xlink">
  <defs>
    <path d="M19.867 12.016a.492.492 0 0 1 .133.359.556.556 0 0 1-.148.36.775.775 0 0 1-.164.1.427.427 0 0 1-.18.04.52.52 0 0 1-.202-.04.387.387 0 0 1-.155-.116l-.67-.703V19.5c0 .135-.05.253-.148.352a.478.478 0 0 1-.35.148h-3.49a.478.478 0 0 1-.35-.148.481.481 0 0 1-.149-.352v-5h-3.972l-.016 5c0 .135-.05.253-.148.352a.478.478 0 0 1-.35.148H6.032a.495.495 0 0 1-.499-.5v-7.484l-.669.703a.552.552 0 0 1-.358.148.49.49 0 0 1-.359-.133.556.556 0 0 1-.148-.359.492.492 0 0 1 .133-.36l7.524-7.859a.53.53 0 0 1 .172-.117.52.52 0 0 1 .39 0 .387.387 0 0 1 .155.117l7.493 7.86zm-2.383-.97c0-.02.005-.04.015-.062l-5.483-5.75-5.5 5.75c0 .021.003.042.008.063.005.02.008.042.008.062V19h2.477l.015-5c0-.135.05-.253.148-.352a.478.478 0 0 1 .351-.148h4.97c.135 0 .251.05.35.148a.481.481 0 0 1 .148.352v5h2.493v-7.953z" id="a"/>
  </defs>
  <g fill="none" fill-rule="evenodd">
    <path d="M0 0h24v24H0z"/>
    <mask id="b" fill="#fff">
      <use xlink:href="#a"/>
    </mask>
    <g mask="url(#b)" fill="#5E5C76">
      <path d="M0 0h24v24H0z"/>
    </g>
  </g>
</svg>
