<svg width="24" height="24" xmlns="http://www.w3.org/2000/svg" xmlns:xlink="http://www.w3.org/1999/xlink"><defs><path d="M12.402 13.045l3.17-2.823c.133-.118.3-.18.482-.18.181 0 .349.062.481.18a.618.618 0 0 1 0 .935l-3.652 3.251a.714.714 0 0 1-.48.18.714.714 0 0 1-.482-.18l-3.706-3.293A.638.638 0 0 1 8 10.641c0-.084.018-.166.052-.244a.66.66 0 0 1 .18-.238.733.733 0 0 1 .464-.159c.172 0 .333.054.481.173l3.225 2.872z" id="a"/></defs><g fill="none" fill-rule="evenodd"><path d="M0 0h24v24H0z"/><mask id="b" fill="#fff"><use xlink:href="#a"/></mask><g mask="url(#b)" fill="#FFF"><path d="M0 0h24v24H0z"/></g></g></svg>